<?xml version="1.0" standalone="no"?>
<!DOCTYPE svg PUBLIC "-//W3C//DTD SVG 1.1//EN" "http://www.w3.org/Graphics/SVG/1.1/DTD/svg11.dtd" >
<svg xmlns="http://www.w3.org/2000/svg" xmlns:xlink="http://www.w3.org/1999/xlink" version="1.1">
<metadata></metadata>
<defs>
<font id="colortuberegular" horiz-adv-x="2670" >
<font-face units-per-em="2048" ascent="1638" descent="-410" />
<missing-glyph horiz-adv-x="1288" />
<glyph horiz-adv-x="0" />
<glyph unicode="&#xd;" horiz-adv-x="0" />
<glyph unicode=" "  horiz-adv-x="1288" />
<glyph unicode="&#x09;" horiz-adv-x="1288" />
<glyph unicode="&#xa0;" horiz-adv-x="1288" />
<glyph unicode="!" horiz-adv-x="733" d="M160 207v41q0 86 60.5 146.5t146.5 60.5t146 -60.5t60 -146.5v-41q0 -86 -60 -146.5t-146 -60.5t-146.5 60.5t-60.5 146.5zM160 893v1124q0 86 60.5 147.5t146.5 61.5t146 -61.5t60 -147.5v-1124q0 -86 -60 -146.5t-146 -60.5t-146.5 60.5t-60.5 146.5z" />
<glyph unicode="$" horiz-adv-x="2056" d="M160 399q0 86 60.5 147.5t146.5 61.5q63 0 116 -37l68 -36q82 -47 142.5 -77t146.5 -55v566q-291 82 -451 243.5t-160 403.5q0 82 19 170q45 205 194.5 334t397.5 157v52q0 86 60.5 147t146.5 61t147 -61t61 -147v-70q186 -43 412 -158q49 -23 82 -65.5t41 -98.5v-4 q2 -4 2 -10v-12v-6v-15l-2 -4q0 -12 -2 -16v-4q-4 -12 -4 -17l-2 -4l-6 -16v-2l-7 -12q-27 -53 -77 -83t-107 -30q-35 0 -59.5 8t-73.5 33q-92 49 -197 84v-533q641 -186 641 -663q0 -113 -36.5 -219.5t-110.5 -192.5q-88 -109 -215 -172t-279 -84v-63q0 -86 -61 -146.5 t-147 -60.5t-146.5 60.5t-60.5 146.5v77q-147 29 -266 81.5t-252 127.5l-56 31q-49 27 -77.5 77t-28.5 105zM645 1618q0 -70 43 -119t152 -92v451q-92 -18 -134 -59.5t-55 -115.5q-6 -32 -6 -65zM1255 385q123 31 174.5 99.5t51.5 144.5q0 31 -8 59q-31 96 -218 168v-471z " />
<glyph unicode="&#x26;" horiz-adv-x="2283" d="M160 653q0 197 113.5 369t326.5 270q27 -45 80 -118l-21 28l-59 90q-4 8 -29 54q-31 59 -47 116q-31 92 -30 180q0 88 16 162q27 100 63 168q33 57 78 107q70 74 156 110q47 23 111 39q76 14 133 15h18q35 0 96 -7q76 -12 142 -34q59 -20 108 -52q86 -49 144 -118 q39 -49 67 -101q31 -59 51 -139q23 -90 23 -184q0 -96 -27 -189q-31 -102 -90 -186q-39 -59 -98 -111q-53 -43 -111 -73l195 -203q74 117 139 248q27 51 77 82.5t109 31.5q86 0 146.5 -60.5t60.5 -146.5q0 -49 -22 -94l-2 -4v-2q-94 -186 -211 -358l200 -205h-2 q60 -59 60 -145t-60.5 -146.5t-146.5 -60.5q-90 0 -150 63l-165 170q-303 -289 -619 -289q-215 0 -397 88q-207 100 -316.5 271.5t-109.5 363.5zM573 649q0 -61 34 -119.5t102 -103.5q55 -39 125.5 -60.5t148.5 -21.5q150 2 328 174l-422 432q-143 -25 -229.5 -110.5 t-86.5 -190.5zM748 1096l63 -66l-61 64q0 2 -2 2zM811 1030l2 -2zM819 1022l47 -49l-41 43zM913 1665q0 -68 21 -113q37 -84 119 -174q125 14 178 80t53 154q0 45 -12 85t-29 62q-29 37 -80 53.5t-96 14.5q-84 0 -119 -46t-35 -116z" />
<glyph unicode="." horiz-adv-x="733" d="M160 176q0 86 60.5 146.5t146.5 60.5t146 -60.5t60 -146.5t-60 -147.5t-146 -61.5t-146.5 61.5t-60.5 147.5z" />
<glyph unicode="0" horiz-adv-x="2220" d="M158 1090q0 291 117.5 553t345.5 434q113 84 239.5 130t259.5 46q266 0 481.5 -163t338 -432t122.5 -575q0 -248 -84 -475q-84 -231 -235 -383q-98 -104 -236 -174q-184 -90 -387 -90h-2q-295 0 -513 160t-332.5 418t-114.5 551zM575 1092q0 -195 66 -358t189.5 -260 t289.5 -97t284 99t179.5 261t61.5 346q0 201 -72 380t-209 284q-119 92 -244 92q-127 0 -254 -97t-209 -269.5t-82 -380.5z" />
<glyph unicode="1" horiz-adv-x="1310" d="M160 1862q0 68 40 122t103 74v2h2l453 148l-2 -2l4 2l4 2q4 0 6 2h4l19 6h4l14 2h6q6 2 17 2q86 0 147 -61.5t61 -147.5v-1806q0 -86 -61 -146.5t-147 -60.5t-146.5 60.5t-60.5 146.5v1522l-197 -64q-2 -2 -8 -2l-10 -4l-9 -2q-8 0 -12 -2h-4h-20q-86 0 -146.5 60.5 t-60.5 146.5zM756 2206zM758 2208h2h-2zM760 2208l4 2zM764 2210z" />
<glyph unicode="2" horiz-adv-x="2013" d="M160 205q0 78 45 135l8 10l6 8q162 174 307.5 305.5t352.5 303.5q23 18 104.5 85.5t136.5 121.5v2q180 172 180 331q0 92 -55 167t-131 116t-133 41q-121 0 -222.5 -55.5t-152.5 -141.5q-27 -51 -75 -80.5t-107 -29.5q-70 0 -125 42t-74 107q-4 8 -4 15l-2 4q-4 25 -4 39 q0 51 27 102q109 193 312.5 304.5t426.5 109.5q178 0 349 -100.5t278.5 -272.5t107.5 -371q0 -158 -74.5 -317.5t-234.5 -311.5q-66 -63 -264 -229q-162 -133 -269 -229h697q86 0 147.5 -61.5t61.5 -147.5t-61.5 -146.5t-147.5 -60.5l-1204 2h2q-45 0 -80 14q-63 27 -96 77 t-33 112zM500 51q4 0 4 4z" />
<glyph unicode="3" horiz-adv-x="1861" d="M160 420v6v12v6v2v11v10l2 6q10 76 68.5 127t136.5 51q80 0 139 -53l2 -2l24 -29h3l6 -12q49 -78 129 -116t174 -38q104 0 205.5 44t167 119t69.5 163q2 43 -8 98q-49 199 -289 242q-53 10 -133 10q-127 0 -283 -33q-27 -6 -55 -6q-90 0 -144.5 62.5t-54.5 146.5 q0 49 21.5 94t62.5 74l422 397h-458q-86 0 -146.5 61.5t-60.5 147.5t60.5 146.5t146.5 60.5h981q43 0 82 -16q61 -27 92.5 -78t31.5 -111q0 -49 -20.5 -93t-58.5 -75l-404 -380q197 -37 339 -142.5t217 -258t75 -329.5v-40q-12 -209 -137 -373t-318.5 -254t-402.5 -90 q-197 0 -369 86t-282 258l-9 12v2q-2 2 -8 14l-2 5l-4 14q-2 2 -2 6l-4 14v4z" />
<glyph unicode="4" horiz-adv-x="2312" d="M160 670q0 47 17.5 89t49.5 70l1135 1305l12 14q31 35 72 53.5t84 18.5q86 0 146.5 -60.5t60.5 -146.5v-1132h207q86 0 147 -60.5t61 -146.5t-61 -147.5t-147 -61.5h-207v-258q0 -86 -61.5 -146.5t-145.5 -60.5q-86 0 -146.5 60.5t-62.5 146.5v258h-954 q-98 0 -152.5 60.5t-54.5 144.5zM821 881h500v575z" />
<glyph unicode="5" horiz-adv-x="1861" d="M160 440q0 86 60.5 146.5t146.5 60.5q53 0 99 -25.5t75 -70.5q51 -78 129 -116t168 -38q109 0 213 48.5t169.5 132.5t65.5 184q0 47 -12 86q-35 121 -141.5 174t-262.5 53q-172 0 -413 -63q-41 -10 -68 -11q-90 0 -144.5 63.5t-54.5 147.5q0 25 7 50l-7 -27l39 788 q0 80 64 142q35 35 80 49q4 2 22.5 6t40.5 4h994q86 0 147 -61.5t61 -147.5t-61 -146.5t-147 -60.5h-3h-792l-19 -338q123 18 250 19q269 0 457 -100.5t284.5 -266.5t96.5 -360q0 -225 -125 -402.5t-324.5 -276.5t-414.5 -99q-197 0 -367 86t-280 258q-33 53 -33 112z M190 1225v10v-10zM229 2007q2 -64 41 -115q-37 51 -41 115z" />
<glyph unicode="6" horiz-adv-x="1978" d="M160 952q0 293 53 516q88 375 315.5 566.5t540.5 191.5q160 0 312.5 -52t269.5 -151l2 -2q2 0 2 -2q4 0 4 -4l10 -8l6 -6l6 -8l7 -8l6 -9l6 -10l4 -8l4 -8q4 -8 4 -11l4 -8q0 -6 4 -10q0 -6 2 -8l2 -12q0 -6 2 -9v-12v-10q2 -2 3 -8v-2l-3 -13v-8l-2 -10q0 -6 -2 -8 q0 -8 -2 -13l-2 -8l-4 -10l-2 -8l-6 -10l-4 -9l-4 -8l-6 -10l-6 -6l-7 -10l-1 -1l-1 -2l-4 -4l-8 -10l-8 -6l-8 -6l-9 -6l-10 -6l-8 -7q-8 -4 -10 -4l-8 -6q-4 0 -13 -4l-8 -2l-14 -4l-6 -2l-15 -2h-6q-4 -2 -10 -2h-12h-21q0 2 -4 2q-10 0 -14 2q-4 0 -6 2l-13 2l-8 2 l-10 4l-8 4l-11 4l-6 4l-10 7l-6 4l-10 6l-7 6h-2q-57 51 -143 78.5t-172 27.5q-174 0 -278.5 -98t-159.5 -282q-10 -37 -17.5 -70t-9.5 -43q184 88 391 88q252 0 439.5 -96.5t287 -263t99.5 -373.5q0 -197 -111 -363t-300 -263t-415 -97h-2q-219 0 -406.5 94t-299 256 t-115.5 358q-12 143 -12 295zM586 672q0 -82 55 -152.5t149.5 -112.5t204.5 -42q107 0 202 40.5t151.5 111.5t56.5 155q0 156 -113.5 237.5t-273.5 81.5q-109 0 -208 -38t-161.5 -110.5t-62.5 -170.5z" />
<glyph unicode="7" horiz-adv-x="1894" d="M160 2013q0 86 60.5 146.5t146.5 60.5h1159h6q82 0 143.5 -58.5t61.5 -144.5q0 -59 -33 -119l-946 -1787l-2 -5l-6 -12q-4 -4 -5 -4q-2 -6 -10 -14l-12 -15q-2 0 -2 -2q-8 -8 -12 -10l-1 -1l-1 -1l-15 -12h-2q-6 -6 -14 -8l-4 -2l-13 -7l-8 -4l-10 -4l-8 -2l-12 -2 q-2 -2 -7 -2q-6 -2 -14 -2q-4 0 -6 -2h-19h-20l-1 1l-1 1q-12 0 -18 2h-5q-8 4 -14 4q-2 2 -6 2q-8 4 -12 4l-6 4l-13 7q-27 12 -51 36l-4 5l-10 10l-2 4l-11 12v2q-31 47 -32 101l-2 12l2 8v12q0 6 2 11v10l4 12q0 4 2 6q0 6 4 15l2 6l8 16v2l1 1l1 1l793 1497h-819 q-86 0 -146.5 61.5t-60.5 147.5z" />
<glyph unicode="8" horiz-adv-x="2035" d="M158 655q0 137 66.5 266.5t199.5 231.5q-88 84 -137 192.5t-49 227.5q0 176 104 323.5t283.5 233.5t392.5 86q215 0 393 -86t282.5 -232.5t104.5 -320.5q0 -121 -49 -230.5t-137 -193.5q133 -102 198.5 -231t65.5 -267q0 -180 -106.5 -340.5t-302 -260t-449.5 -99.5h-2 q-252 0 -447.5 99.5t-303 260t-107.5 340.5zM575 651q0 -74 61.5 -138t164 -103t217.5 -39q119 0 221 39t161.5 103.5t59.5 137.5q0 78 -74 150q-68 63 -167 96t-201 33h-23q-92 -4 -197.5 -38t-174.5 -120q-47 -59 -48 -121zM653 1573q0 -59 51.5 -111.5t135.5 -84 t180 -31.5q86 0 156 22q88 29 148 84t60 121q0 47 -31.5 89t-80.5 71q-107 69 -252 69q-94 0 -179 -30.5t-136.5 -84t-51.5 -114.5z" />
<glyph unicode="9" horiz-adv-x="1988" d="M160 1513q0 197 109.5 365t299 266.5t416.5 98.5q209 0 397 -89q182 -88 277.5 -218t124 -237.5t26.5 -156.5q21 -198 21 -368q0 -276 -53 -488q-61 -250 -193.5 -410.5t-304.5 -235.5t-360 -75q-168 0 -325 55.5t-269 151.5q-74 63 -74 158q0 86 61.5 146.5t147.5 60.5 q80 0 139 -54q59 -49 143 -75.5t168 -26.5q178 0 287 88t164 264q23 74 33 152q-193 -98 -410 -99h-2q-266 2 -472 117t-296 336q-55 131 -55 274zM575 1505q0 -78 42 -146.5t133.5 -112.5t232.5 -44q119 2 213 48t147 120q52 72 52 150q0 80 -55.5 151.5t-149.5 113.5 t-205 42q-106 0 -204.5 -43t-155.5 -119q-49 -70 -50 -160z" />
<glyph unicode="?" horiz-adv-x="1734" d="M160 1692v16v2v2v21l2 16q2 2 2 6l2 10l6 19v2l16 31q115 205 290 306t442 103h2q6 0 8 -2v2q170 0 317.5 -93t236.5 -246.5t89 -323.5q0 -158 -84 -303.5t-258 -258.5q-53 -35 -121 -67v-154q0 -33 -10 -67q-23 -61 -76 -101.5t-121 -40.5t-122 40t-74 102 q-12 31 -13 67v291q0 63 38 117.5t99 77.5q172 63 251 144t79 165q0 61 -37 115.5t-94 87t-110 32.5q-109 0 -178.5 -23.5t-112.5 -65.5t-80 -111q-29 -53 -84 -82l-16 -8h-3l-16 -7l-4 -2l-16 -4h-2l-19 -4h-4h-18h-19h-4q-25 4 -39 8l-2 2q-12 2 -33 15q-4 0 -6 2l-8 6 q-6 2 -9 4t-5 4l-1 1l-1 1q-31 23 -51.5 56.5t-26.5 72.5v8q-2 2 -2 9zM694 207v41q0 86 61.5 146.5t147.5 60.5t146.5 -60.5t60.5 -146.5v-41q0 -86 -60.5 -146.5t-146.5 -60.5t-147.5 60.5t-61.5 146.5z" />
<glyph unicode="A" horiz-adv-x="2455" d="M82 207q0 49 22 94h-2l912 1792q23 57 75 94t117 37q66 0 117 -37t76 -94l909 -1792q23 -45 23 -94q0 -86 -60.5 -146.5t-146.5 -60.5q-59 0 -109.5 31.5t-75.5 83.5l-2 -2l-213 422h-561q-86 0 -147.5 61t-61.5 147t61.5 146.5t147.5 60.5h350l-307 606l-733 -1443v2 q-27 -51 -76 -83t-108 -32q-86 0 -146.5 60.5t-60.5 146.5z" />
<glyph unicode="&#xc3;" horiz-adv-x="2455" d="M82 207q0 49 22 94h-2l912 1792q23 57 75 94t117 37q66 0 117 -37t76 -94l909 -1792q23 -45 23 -94q0 -86 -60.5 -146.5t-146.5 -60.5q-59 0 -109.5 31.5t-75.5 83.5l-2 -2l-213 422h-561q-86 0 -147.5 61t-61.5 147t61.5 146.5t147.5 60.5h350l-307 606l-733 -1443v2 q-27 -51 -76 -83t-108 -32q-86 0 -146.5 60.5t-60.5 146.5z" />
<glyph unicode="&#xc2;" horiz-adv-x="2455" d="M82 207q0 49 22 94h-2l912 1792q23 57 75 94t117 37q66 0 117 -37t76 -94l909 -1792q23 -45 23 -94q0 -86 -60.5 -146.5t-146.5 -60.5q-59 0 -109.5 31.5t-75.5 83.5l-2 -2l-213 422h-561q-86 0 -147.5 61t-61.5 147t61.5 146.5t147.5 60.5h350l-307 606l-733 -1443v2 q-27 -51 -76 -83t-108 -32q-86 0 -146.5 60.5t-60.5 146.5z" />
<glyph unicode="&#xc1;" horiz-adv-x="2455" d="M82 207q0 49 22 94h-2l912 1792q23 57 75 94t117 37q66 0 117 -37t76 -94l909 -1792q23 -45 23 -94q0 -86 -60.5 -146.5t-146.5 -60.5q-59 0 -109.5 31.5t-75.5 83.5l-2 -2l-213 422h-561q-86 0 -147.5 61t-61.5 147t61.5 146.5t147.5 60.5h350l-307 606l-733 -1443v2 q-27 -51 -76 -83t-108 -32q-86 0 -146.5 60.5t-60.5 146.5z" />
<glyph unicode="&#xc0;" horiz-adv-x="2455" d="M82 207q0 49 22 94h-2l912 1792q23 57 75 94t117 37q66 0 117 -37t76 -94l909 -1792q23 -45 23 -94q0 -86 -60.5 -146.5t-146.5 -60.5q-59 0 -109.5 31.5t-75.5 83.5l-2 -2l-213 422h-561q-86 0 -147.5 61t-61.5 147t61.5 146.5t147.5 60.5h350l-307 606l-733 -1443v2 q-27 -51 -76 -83t-108 -32q-86 0 -146.5 60.5t-60.5 146.5z" />
<glyph unicode="B" horiz-adv-x="2213" d="M160 207v1806v2v2q0 86 60.5 146.5t146.5 60.5h2h899q180 0 326.5 -89t228.5 -236.5t82 -313.5q0 -188 -111 -352q-4 -4 -4 -8q133 -103 198.5 -242t65.5 -291q0 -178 -85 -336.5t-241.5 -257t-357.5 -98.5h-1003q-14 0 -21 2q-59 4 -105 40t-69 91q-12 37 -12 74z M573 416h797q78 0 139.5 38t95 100t33.5 132q0 78 -45 148q-49 72 -112.5 96t-137.5 24l-69 -2l-373 2l-6 -2q-86 0 -146.5 61.5t-60.5 147.5q0 80 54.5 139.5t131.5 67.5h21h2h375q102 2 158.5 67.5t56.5 153.5q0 86 -54.5 150.5t-150.5 66.5h-709v-1390z" />
<glyph unicode="C" horiz-adv-x="2320" d="M160 1112q0 184 51 340q47 158 143 301q92 137 221.5 243.5t282.5 170.5q209 90 447 90q225 0 436 -86q203 -84 358 -234l1 -1l1 -1l8 -8q4 -4 5 -6l8 -8l6 -8l4 -9l6 -10l4 -8l4 -8q2 -2 2 -5t2 -5l2 -11q2 -2 2 -5t3 -5l2 -8q0 -6 2 -10v-11q2 -2 2 -8v-12v-2v-6v-13 q-2 -4 -2 -10l-2 -10l-2 -10l-3 -10l-4 -9l-2 -10l-4 -8l-6 -10l-4 -9l-6 -10q0 -2 -2 -4l-4 -4l-4 -8q-6 -2 -9 -8l-4 -4l-2 -3l-10 -8l-6 -6l-8 -8l-8 -4l-15 -10l-10 -4l-10 -7l-8 -2l-13 -4l-6 -2l-12 -2q-4 -2 -10 -2l-11 -2h-20h-21q-6 0 -8 2h-12l-10 4q-6 0 -9 2 l-10 2l-10 4l-8 4l-10 5l-9 6l-8 4l-8 6l-8 6l-8 8q-2 0 -7 4q-100 96 -227 150q-137 55 -278 55q-113 0 -218 -35q-102 -31 -190 -90q-184 -125 -266 -321q-57 -137 -58 -285q0 -109 33 -217q33 -102 92 -193q123 -180 322 -264q137 -57 285 -57q143 0 272 53 q127 51 227 146q4 0 4 4l9 6l8 6l8 6l10 4l6 6q6 0 11 4q4 0 8 5l10 2l8 4l12 2q2 2 9 2q4 2 12 2l8 2h19h2h20l17 -4h4q23 -4 39 -13l4 -2l14 -6l8 -6q2 -2 4 -3l6 -3q2 0 7 -4l10 -8l6 -6q8 -8 8 -9l1 -1l1 -1l4 -4l8 -8l7 -8l6 -8q0 -2 4 -11l6 -8l4 -8q0 -2 4 -10l2 -10 l4 -9l2 -10l2 -10l2 -10v-11l2 -10v-6v-4q0 -6 -2 -10v-11q0 -6 -2 -10q0 -6 -2 -10q0 -6 -2 -8l-2 -10l-4 -11l-4 -10l-4 -8q0 -4 -4 -8l-6 -11l-4 -8l-7 -8l-6 -8l-6 -6l-8 -8l-1 -1l-1 -2q-158 -147 -356 -227q-207 -84 -428 -84q-176 0 -340 53q-158 47 -301 144 q-137 92 -244 221t-170 283q-90 209 -90 446z" />
<glyph unicode="D" horiz-adv-x="2383" d="M160 207v1806v2v2q0 86 60.5 146.5t146.5 60.5l30 -2h781q254 0 473 -113q209 -106 352 -301q96 -127 147 -274q76 -203 76 -424q0 -307 -136 -561t-374.5 -401.5t-537.5 -147.5h-811q-86 0 -146.5 60.5t-60.5 146.5zM573 416h605q188 0 332.5 93t222 252t77.5 349 q0 166 -61 311q-57 137 -162 232q-72 66 -153 100q-117 53 -256 53h-605v-1390z" />
<glyph unicode="E" horiz-adv-x="2035" d="M217 207v1806v2v2q0 86 61.5 146.5t147.5 60.5l29 -2h1175q84 0 145.5 -61.5t61.5 -147.5t-61.5 -146.5t-145.5 -60.5h-997v-487h819q86 0 147.5 -61.5t61.5 -147.5t-61.5 -146.5t-147.5 -60.5h-819v-487h995q86 0 147.5 -61.5t61.5 -147.5t-61.5 -146.5t-145.5 -60.5 h-1204q-59 0 -107 29q-47 29 -74.5 76t-27.5 102z" />
<glyph unicode="&#xc9;" horiz-adv-x="2035" d="M217 207v1806v2v2q0 86 61.5 146.5t147.5 60.5l29 -2h1175q84 0 145.5 -61.5t61.5 -147.5t-61.5 -146.5t-145.5 -60.5h-997v-487h819q86 0 147.5 -61.5t61.5 -147.5t-61.5 -146.5t-147.5 -60.5h-819v-487h995q86 0 147.5 -61.5t61.5 -147.5t-61.5 -146.5t-145.5 -60.5 h-1204q-59 0 -107 29q-47 29 -74.5 76t-27.5 102z" />
<glyph unicode="&#xc8;" horiz-adv-x="2035" d="M217 207v1806v2v2q0 86 61.5 146.5t147.5 60.5l29 -2h1175q84 0 145.5 -61.5t61.5 -147.5t-61.5 -146.5t-145.5 -60.5h-997v-487h819q86 0 147.5 -61.5t61.5 -147.5t-61.5 -146.5t-147.5 -60.5h-819v-487h995q86 0 147.5 -61.5t61.5 -147.5t-61.5 -146.5t-145.5 -60.5 h-1204q-59 0 -107 29q-47 29 -74.5 76t-27.5 102z" />
<glyph unicode="F" horiz-adv-x="2050" d="M242 207v1810q0 84 59 144l1 1l1 1l19 14q55 45 127 45h1204l30 2q86 0 147.5 -60.5t61.5 -146.5t-61.5 -147.5t-147.5 -61.5l-30 2v-4h-998v-487h822q86 0 146 -61.5t60 -147.5t-60 -146.5t-146 -60.5h-822v-696q0 -86 -60 -146.5t-146 -60.5t-146.5 60.5t-60.5 146.5z " />
<glyph unicode="G" horiz-adv-x="2332" d="M160 1096q0 334 162.5 596t429 406.5t563.5 144.5q213 0 415.5 -79t368.5 -241q63 -63 64 -149q0 -86 -60.5 -147.5t-146.5 -61.5q-82 0 -146 59v-2q-106 102 -235 153.5t-264 51.5q-190 0 -360.5 -93.5t-274 -260t-103.5 -377.5t103.5 -378t274.5 -260t364 -93 q242 0 444 145v360h-530q-86 0 -147.5 60.5t-61.5 146.5t61.5 147.5t147.5 61.5h739q86 0 146.5 -61.5t60.5 -147.5v-665q0 -43 -18 -84q-16 -37 -48 -66v-2q-164 -154 -368.5 -231.5t-421.5 -77.5q-223 0 -432 81t-376 238.5t-261 380.5q-90 209 -90 445z" />
<glyph unicode="H" horiz-adv-x="2267" d="M160 207v1806v4q0 86 60.5 146.5t146.5 60.5t146 -60.5t60 -146.5v-4v-1806q0 -86 -60 -146.5t-146 -60.5t-146.5 60.5t-60.5 146.5zM688 1110q0 86 60.5 147.5t146.5 61.5h721v694v4q0 86 60.5 146.5t146.5 60.5t146.5 -60.5t60.5 -146.5v-4v-1806q0 -86 -60.5 -146.5 t-146.5 -60.5t-146.5 60.5t-60.5 146.5v696h-721q-86 0 -146.5 60.5t-60.5 146.5z" />
<glyph unicode="I" horiz-adv-x="882" d="M231 211l2 2h-2v1806q0 86 61.5 147.5t147.5 61.5t146.5 -61.5t60.5 -147.5v-1806v-2q0 -86 -60.5 -147.5t-146.5 -61.5t-147.5 61.5t-61.5 147.5z" />
<glyph unicode="&#xce;" horiz-adv-x="882" d="M231 211l2 2h-2v1806q0 86 61.5 147.5t147.5 61.5t146.5 -61.5t60.5 -147.5v-1806v-2q0 -86 -60.5 -147.5t-146.5 -61.5t-147.5 61.5t-61.5 147.5z" />
<glyph unicode="&#xcd;" horiz-adv-x="882" d="M231 211l2 2h-2v1806q0 86 61.5 147.5t147.5 61.5t146.5 -61.5t60.5 -147.5v-1806v-2q0 -86 -60.5 -147.5t-146.5 -61.5t-147.5 61.5t-61.5 147.5z" />
<glyph unicode="&#xcc;" horiz-adv-x="882" d="M231 211l2 2h-2v1806q0 86 61.5 147.5t147.5 61.5t146.5 -61.5t60.5 -147.5v-1806v-2q0 -86 -60.5 -147.5t-146.5 -61.5t-147.5 61.5t-61.5 147.5z" />
<glyph unicode="J" horiz-adv-x="1849" d="M160 428q0 86 60.5 146.5t146.5 60.5q45 0 83.5 -17.5t67.5 -48.5h2q86 -92 154.5 -131t111.5 -44t136 -5q178 0 265 87t87 284v1263q0 86 61.5 146.5t147.5 60.5t146.5 -60.5t60.5 -146.5v-1263q0 -242 -92.5 -418t-265.5 -271.5t-410 -95.5q-123 0 -210 11.5t-219.5 78 t-271.5 216.5q-4 0 -4 4l-1 1l-1 1q-55 59 -55 141z" />
<glyph unicode="K" horiz-adv-x="2134" d="M160 207v1818q4 82 64.5 139.5t142.5 57.5t142 -57.5t64 -139.5v-819l918 953h2l10 10l4 4l11 8q4 4 6 4q12 8 18 10q4 4 8 5l11 6l8 2q4 4 10 4l8 2l12 4h9q4 2 12 2l20 2l21 -2h8q4 -2 12 -2q2 -2 9 -2q2 -2 5 -2t5 -2l10 -2l8 -4q2 0 11 -4l8 -4l8 -5l10 -6l8 -6l9 -6 l8 -6q4 -4 4 -6h2l8 -11l6 -6l6 -8l6 -8q4 -4 5 -6l6 -10l4 -9q4 -8 4 -10q4 -8 4 -10l4 -8l2 -13q2 -2 2 -8q2 -2 2 -10l2 -10v-8v-13v-2v-6v-12q0 -6 -2 -10v-11q-2 -2 -2 -8q-2 -2 -2 -5t-2 -5l-2 -10l-4 -11l-4 -8l-4 -10q-4 -4 -4 -8l-6 -8l-7 -9l-6 -8q-2 -6 -8 -8 q0 -2 -4 -6l-604 -627l741 -903q47 -61 47 -133q0 -86 -60.5 -146.5t-146.5 -60.5q-49 0 -91 19.5t-70 56.5l-711 866l-322 -334v-401q0 -86 -60 -146.5t-146 -60.5t-146.5 60.5t-60.5 146.5z" />
<glyph unicode="L" horiz-adv-x="1851" d="M207 207v1806q0 86 60.5 147.5t146.5 61.5t146.5 -61.5t60.5 -147.5v-1597h862q86 0 147.5 -61.5t61.5 -147.5t-61.5 -146.5t-147.5 -60.5h-1069q-86 0 -146.5 60.5t-60.5 146.5z" />
<glyph unicode="M" horiz-adv-x="2650" d="M160 205v2v1802v2q0 86 60.5 146.5t146.5 60.5q51 0 95 -22.5t73 -63.5l710 -965l735 967l2 2l5 6l1 1l1 1q4 4 4 6l10 9l6 6l8 8l8 6l9 6l8 4l10 6l4 3l4 2l13 4l8 4l10 2l8 2l12 4h11q4 2 10 2h6h10h19h6q4 -2 14 -2q2 -2 6 -2l13 -4h4l1 -1l1 -1l16 -6q12 -4 17 -9 l6 -2l10 -6l8 -6l4 -2q4 -4 6 -4v-2h2q4 -4 5 -6l10 -8l6 -7l8 -10l4 -6l8 -10l5 -8l6 -9l2 -4q0 -4 2 -4q0 -4 4 -12l2 -8q4 -8 4 -13q2 -2 2 -8l4 -12v-8l2 -13v-4v-10v-1806q-2 -84 -62.5 -144.5t-144.5 -60.5q-86 0 -146 60.5t-63 144.5v1192l-530 -699l-2 -2 q-12 -16 -21 -22q-6 -10 -18 -17q-55 -45 -125 -45q-35 0 -78 17l-14 6q-20 8 -37 22l-20 19l-19 22l-4 4l-6 13q-39 47 -207 278l-285 385v-1171v-2q0 -84 -61 -144.5t-145 -60.5q-86 0 -146.5 60.5t-60.5 144.5z" />
<glyph unicode="N" horiz-adv-x="2265" d="M160 207v1806v8v7v10q2 4 2 10l2 10l2 10l4 11l2 8q2 2 2 5t2 5l4 8q4 8 4 11l6 8l7 8l6 8l4 8l8 6l6 9l8 6l7 6l8 6l8 6l10 6q2 0 6 5q2 2 5 2t6 2l8 4q2 2 5 2t5 2l8 2l12 4q6 0 9 2q8 0 14 2h6q6 2 21 2q14 0 20 -2q72 -6 125 -59h2l8 -11l4 -4l1166 -1372v1239 q0 86 60 147.5t146 61.5t146.5 -61.5t60.5 -147.5v-1806v-6q-4 -84 -63.5 -142.5t-143.5 -58.5q-47 0 -88 19.5t-71 54.5l-1166 1374v-1241q0 -86 -60 -146.5t-146 -60.5t-146.5 60.5t-60.5 146.5z" />
<glyph unicode="O" d="M160 1098q0 317 155.5 586.5t422 428t583.5 162.5h14q320 0 590 -158.5t428 -429t158 -589.5t-158 -588.5t-428 -428.5t-590 -159q-319 0 -589.5 159t-428 428t-157.5 589zM573 1098q0 -233 129 -423t336 -278q141 -59 297 -59q207 0 381 102.5t277.5 276.5t103.5 381 t-102.5 382t-277.5 277.5t-382 102.5t-382 -102.5t-277.5 -277.5t-102.5 -382z" />
<glyph unicode="&#xd5;" d="M160 1098q0 317 155.5 586.5t422 428t583.5 162.5h14q320 0 590 -158.5t428 -429t158 -589.5t-158 -588.5t-428 -428.5t-590 -159q-319 0 -589.5 159t-428 428t-157.5 589zM573 1098q0 -233 129 -423t336 -278q141 -59 297 -59q207 0 381 102.5t277.5 276.5t103.5 381 t-102.5 382t-277.5 277.5t-382 102.5t-382 -102.5t-277.5 -277.5t-102.5 -382z" />
<glyph unicode="&#xd4;" d="M160 1098q0 317 155.5 586.5t422 428t583.5 162.5h14q320 0 590 -158.5t428 -429t158 -589.5t-158 -588.5t-428 -428.5t-590 -159q-319 0 -589.5 159t-428 428t-157.5 589zM573 1098q0 -233 129 -423t336 -278q141 -59 297 -59q207 0 381 102.5t277.5 276.5t103.5 381 t-102.5 382t-277.5 277.5t-382 102.5t-382 -102.5t-277.5 -277.5t-102.5 -382z" />
<glyph unicode="&#xd3;" d="M160 1098q0 317 155.5 586.5t422 428t583.5 162.5h14q320 0 590 -158.5t428 -429t158 -589.5t-158 -588.5t-428 -428.5t-590 -159q-319 0 -589.5 159t-428 428t-157.5 589zM573 1098q0 -233 129 -423t336 -278q141 -59 297 -59q207 0 381 102.5t277.5 276.5t103.5 381 t-102.5 382t-277.5 277.5t-382 102.5t-382 -102.5t-277.5 -277.5t-102.5 -382z" />
<glyph unicode="&#xd2;" d="M160 1098q0 317 155.5 586.5t422 428t583.5 162.5h14q320 0 590 -158.5t428 -429t158 -589.5t-158 -588.5t-428 -428.5t-590 -159q-319 0 -589.5 159t-428 428t-157.5 589zM573 1098q0 -233 129 -423t336 -278q141 -59 297 -59q207 0 381 102.5t277.5 276.5t103.5 381 t-102.5 382t-277.5 277.5t-382 102.5t-382 -102.5t-277.5 -277.5t-102.5 -382z" />
<glyph unicode="P" horiz-adv-x="2058" d="M160 207v1806q0 86 60.5 147.5t146.5 61.5h745q123 0 234 -37q113 -35 206 -98q94 -63 167 -151.5t118 -194.5q61 -149 61 -307q0 -119 -34 -234q-33 -106 -101 -207q-63 -94 -151 -166.5t-195 -117.5q-141 -61 -305 -62h-539v-440q0 -86 -60 -146.5t-146 -60.5 t-146.5 60.5t-60.5 146.5zM573 1061h539q59 0 111 18q49 14 96 45q90 63 135 164q29 70 29 146q0 63 -17 110q-14 49 -47 98q-59 90 -164 136q-66 28 -138 28h-5h-539v-745z" />
<glyph unicode="Q" d="M160 1110q0 231 88 448.5t256 385.5q170 170 386 257t445 87t445.5 -87t386.5 -257q172 -174 258 -387.5t86 -436.5q0 -199 -63.5 -386t-184.5 -345l68 -67l14 -17l6 -6l6 -10l4 -8l6 -9l5 -10l4 -8l4 -10l2 -8q2 -2 2 -5.5t2 -5.5l2 -10q0 -8 2 -10v-10q2 -6 2 -21 q0 -12 -2 -20v-9q-2 -4 -2 -12l-2 -10l-4 -8l-2 -11l-4 -10l-4 -8l-5 -10l-6 -8l-4 -9l-6 -8l-6 -8q-6 -8 -14 -14v-2l-15 -13l-8 -6l-8 -6l-10 -6q-4 -4 -9 -4l-8 -6q-2 0 -10 -4l-8 -2q-2 -2 -5 -2.5t-5 -2.5l-11 -2q-2 -2 -10 -2q-4 -2 -10 -2l-10 -2h-21h-20l-9 2 q-8 0 -10 2q-8 0 -10 2l-10 2l-10 5l-9 2q-8 4 -10 4l-8 6q-4 0 -8 4l-11 6l-8 6l-8 6l-14 13l-82 82q-279 -174 -621 -175q-233 0 -449 89.5t-382 255.5l-12 12q-164 168 -248 381t-84 438zM446 389q6 -47 37 -86q-31 41 -37 86zM489 293l3 -2l12 -12zM506 573 q47 50 121 60q-74 -10 -121 -60zM573 1112q0 -147 57.5 -287.5t166.5 -251.5l-4 5q4 -4 4 -5q113 -113 250 -169t282 -56q166 0 318 70l-324 323l-12 15l-6 8l-7 8l-6 10l-4 9l-4 8l-6 10l-2 8l-4 10l-2 11l-2 10q-2 2 -2 10l-2 8v41l2 11q0 6 2 10l2 10l2 10q2 2 2 5t2 5 l2 9l6 10l4 8q0 4 4 8l6 11l7 8l6 8l12 14h2q6 8 14 15l9 6l8 6l8 4l8 6l10 4l9 4l10 4l10 2l8 5l11 2q8 0 12 2h8q8 2 20 2q14 0 21 -2h10q2 -2 10 -2l11 -2q2 -2 5 -2.5t5 -2.5l8 -2l10 -4l9 -4l10 -4l8 -6l8 -4l10 -6l7 -6l16 -15l350 -350q127 186 127 426 q0 152 -56.5 291t-164.5 248q-111 111 -250 167t-289 56t-289 -56.5t-249 -166.5q-109 -109 -166.5 -249t-57.5 -288z" />
<glyph unicode="R" horiz-adv-x="2129" d="M160 207v1806q0 86 60.5 147.5t146.5 61.5h868h2q199 0 368 -99.5t268 -268t99 -367.5q0 -215 -114.5 -394.5t-305.5 -271.5l375 -487q45 -55 45 -127q0 -86 -61.5 -146.5t-147.5 -60.5q-47 0 -90 21.5t-74 58.5l-518 670h-508v-543q0 -86 -60 -146.5t-146 -60.5 t-146.5 60.5t-60.5 146.5zM573 1165h609h2h2h49q43 0 96 15q111 32 167 115t56 186q0 84 -37.5 158.5t-110.5 120.5t-171 46h-662v-641z" />
<glyph unicode="S" horiz-adv-x="2113" d="M160 369q0 86 60.5 146t146.5 60q66 0 112 -32v2q156 -102 299.5 -153.5t313.5 -51.5q203 0 296 76t93 188q0 82 -59.5 135.5t-149.5 85t-250 70.5q-211 53 -347 102.5t-254 149.5t-167 262q-23 68 -23 160v16q6 233 109.5 385t271.5 221.5t369 69.5q217 0 426 -74 q145 -53 272 -121q51 -27 82 -75.5t31 -108.5q0 -86 -60.5 -146.5t-146.5 -60.5q-51 0 -96 23q-170 88 -279.5 116.5t-222.5 28.5q-131 0 -205.5 -30.5t-104.5 -88t-32 -149.5v-6q2 -100 121 -157.5t283 -94.5q383 -80 615 -244t232 -469q0 -186 -95 -340.5t-277.5 -246 t-431.5 -91.5q-231 0 -433 67.5t-407 203.5q-43 29 -67.5 73.5t-24.5 98.5z" />
<glyph unicode="T" horiz-adv-x="2054" d="M23 2013q0 86 60 147.5t146 61.5h1516q86 0 147.5 -61.5t61.5 -147.5t-61.5 -146.5t-147.5 -60.5h-549v-1599q0 -86 -61.5 -146.5t-147.5 -60.5t-146.5 60.5t-60.5 146.5v1599h-551q-86 0 -146 60.5t-60 146.5z" />
<glyph unicode="U" horiz-adv-x="2248" d="M160 829v13v1186q0 86 60.5 146t146.5 60t146 -60t60 -146v-7v-1179v-13q0 -123 78 -230t205 -172t266 -65t267.5 63.5t206 172.5t77.5 231l2 13v1179l-2 7q0 86 61.5 146t147.5 60t146.5 -60t60.5 -146v-1186v-13q0 -240 -135 -442.5t-358.5 -320t-473.5 -117.5 q-252 0 -473 118.5t-355 320.5t-134 441z" />
<glyph unicode="&#xda;" horiz-adv-x="2248" d="M160 829v13v1186q0 86 60.5 146t146.5 60t146 -60t60 -146v-7v-1179v-13q0 -123 78 -230t205 -172t266 -65t267.5 63.5t206 172.5t77.5 231l2 13v1179l-2 7q0 86 61.5 146t147.5 60t146.5 -60t60.5 -146v-1186v-13q0 -240 -135 -442.5t-358.5 -320t-473.5 -117.5 q-252 0 -473 118.5t-355 320.5t-134 441z" />
<glyph unicode="&#xd9;" horiz-adv-x="2248" d="M160 829v13v1186q0 86 60.5 146t146.5 60t146 -60t60 -146v-7v-1179v-13q0 -123 78 -230t205 -172t266 -65t267.5 63.5t206 172.5t77.5 231l2 13v1179l-2 7q0 86 61.5 146t147.5 60t146.5 -60t60.5 -146v-1186v-13q0 -240 -135 -442.5t-358.5 -320t-473.5 -117.5 q-252 0 -473 118.5t-355 320.5t-134 441z" />
<glyph unicode="V" horiz-adv-x="2408" d="M160 2013q0 86 60.5 147.5t146.5 61.5q61 0 112 -32.5t76 -88.5l649 -1401l649 1401q25 55 76 88t113 33q86 0 146.5 -61.5t60.5 -147.5q-1 -45 -19 -86l-837 -1806q-25 -53 -75 -87t-114 -34q-59 0 -110.5 33t-77.5 88l-838 1806q-18 41 -18 86z" />
<glyph unicode="W" horiz-adv-x="3504" d="M160 2013q0 86 60.5 147.5t146.5 61.5q68 0 120 -38t74 -99l475 -1315l576 1325l2 2q0 4 2 4l2 6l4 9l6 8l4 8l8 10q0 2 5 6l8 9l6 6l2 2l4 4l8 8l8 6l11 6l8 4l10 7l8 4l13 4l4 2h2l1 1l1 1q6 0 8 2l10 2l8 2l13 2h6q6 2 20 2h6q6 0 9 -2h8q8 0 12 -2q6 0 10 -2l9 -2 l12 -2l6 -4q4 0 12 -4l6 -4l13 -7q2 0 6 -4l10 -6l8 -6l6 -6l9 -6l8 -6l2 -5q4 -4 4 -6l6 -6l6 -8l6 -6q0 -2 4 -10q4 -4 5 -9q4 -4 4 -8l6 -10v-2l2 -4v-2l461 -1276l483 1280q23 59 75 97t117 38q86 0 147.5 -61.5t61.5 -147.5q0 -40 -14 -71l-680 -1807h-2l-2 -10 q-4 -4 -6 -8l-4 -8q-12 -29 -35 -48l-16 -16l-19 -12h-2q-6 -6 -16 -10q-8 -4 -21 -9v-2h-2h-2l-18 -6h-2q-2 -2 -11 -2q-4 -2 -12 -2q-8 -2 -24 -2h-13h-2l-10 2q-8 0 -12 2h-2q-4 0 -21 4l-6 2l-8 4l-8 2l-19 9q-14 10 -16 10l-17 12l-16 14l-14 17v2l-13 16v2 q-6 8 -10 17q-4 6 -8 18l-2 4v2l-473 1313l-578 -1327q-20 -45 -51 -70v-2l-14 -12h-2l-15 -10h-2q-2 -2 -14 -8l-16 -9h-2l-5 -2l-10 -4h-2q-2 0 -14 -4l-12 -2h-2q-10 -2 -29 -2h-4h-2q-90 4 -146 66l-14 16v2q-8 8 -10 14l-2 4q-4 6 -9 15q-4 6 -8 18l-1 1l-1 1 l-649 1807q-12 35 -12 69z" />
<glyph unicode="X" horiz-adv-x="2213" d="M160 207q0 76 47 133l633 770l-633 772q-47 57 -47 131q0 86 60.5 147.5t146.5 61.5q47 0 89 -20.5t70 -55.5l582 -708l580 708q29 35 70.5 55.5t88.5 20.5q86 0 147.5 -61.5t61.5 -147.5q0 -70 -47 -131h-2l-631 -772l631 -770h2q47 -61 47 -133q0 -86 -61.5 -146.5 t-147.5 -60.5q-47 0 -89 20.5t-70 55.5l-580 708l-582 -708q-29 -35 -69.5 -55.5t-89.5 -20.5q-86 0 -146.5 60.5t-60.5 146.5z" />
<glyph unicode="Y" horiz-adv-x="2408" d="M160 2013q0 86 60.5 147.5t146.5 61.5q51 0 94 -23.5t74 -62.5l669 -922l670 922q31 39 74 62.5t94 23.5q86 0 146.5 -61.5t60.5 -147.5q0 -66 -39 -121l-799 -1097v-568v-12v-8q0 -76 -50 -134.5t-124 -70.5h-4q-6 0 -10 -2h-19h-18q-4 2 -10 2h-5q-74 12 -124 70.5 t-50 134.5v8v12v631q-2 -20 -1 -35.5t1 -27.5l-798 1097q-39 55 -39 121zM1001 907l3 4l-3 -2v-2zM1004 913l2 7q0 4 2 6v2v4q4 4 4 6l-2 -4l2 4v2l2 4q6 12 8 14h-2l-12 -26l-4 -14l2 2q-2 -2 -2 -7zM1008 932q0 2 2 2l-1 -1zM1022 961zM1022 963h2v2l-1 -1zM1024 965l4 6z M1028 971zM1034 981l4 4zM1411 885v2v-2z" />
<glyph unicode="Z" horiz-adv-x="2111" d="M158 209q0 47 20 88l4 4l4 10l7 8l6 11l4 4l1124 1472h-960q-86 0 -146.5 60.5t-60.5 146.5t60.5 147.5t146.5 61.5h1376h2q90 0 149.5 -63.5t59.5 -145.5q0 -66 -43 -125l-2 -2l-1123 -1470h959q86 0 147.5 -61.5t61.5 -147.5t-61.5 -146.5t-147.5 -60.5h-1372h-4h-2h-9 h-6l-16 2h-2l-19 4h-2q-25 8 -37 14h-2q-4 4 -14 9q0 2 -4 2l-12 10l-1 1l-1 1q-2 0 -6 4t-5 4q-45 39 -63 96l-2 11l-2 4q-6 23 -6 47zM504 51l6 6q-4 -4 -6 -4v-2z" />
<glyph unicode="a" horiz-adv-x="2187" d="M160 827q0 225 109.5 423t302 317t427.5 119h2q139 0 270.5 -46.5t241.5 -132.5q16 70 72.5 116t130.5 46q86 0 147.5 -61.5t61.5 -147.5v-1259q0 -86 -61.5 -146.5t-147.5 -60.5q-72 0 -128 45t-72 113q-113 -90 -245 -135.5t-270 -45.5h-2q-170 0 -322.5 65.5 t-270 184.5t-181.5 275q-65 160 -65 326v5zM575 827q0 -119 57.5 -220t155 -160.5t211.5 -59.5q121 0 218.5 61.5t152.5 164t55 216.5q0 135 -73 248q-59 88 -152.5 140.5t-200.5 52.5q-117 0 -214 -59.5t-153.5 -161t-56.5 -222.5z" />
<glyph unicode="&#xe4;" horiz-adv-x="2187" d="M160 827q0 225 109.5 423t302 317t427.5 119h2q139 0 270.5 -46.5t241.5 -132.5q16 70 72.5 116t130.5 46q86 0 147.5 -61.5t61.5 -147.5v-1259q0 -86 -61.5 -146.5t-147.5 -60.5q-72 0 -128 45t-72 113q-113 -90 -245 -135.5t-270 -45.5h-2q-170 0 -322.5 65.5 t-270 184.5t-181.5 275q-65 160 -65 326v5zM575 827q0 -119 57.5 -220t155 -160.5t211.5 -59.5q121 0 218.5 61.5t152.5 164t55 216.5q0 135 -73 248q-59 88 -152.5 140.5t-200.5 52.5q-117 0 -214 -59.5t-153.5 -161t-56.5 -222.5z" />
<glyph unicode="&#xe3;" horiz-adv-x="2187" d="M160 827q0 225 109.5 423t302 317t427.5 119h2q139 0 270.5 -46.5t241.5 -132.5q16 70 72.5 116t130.5 46q86 0 147.5 -61.5t61.5 -147.5v-1259q0 -86 -61.5 -146.5t-147.5 -60.5q-72 0 -128 45t-72 113q-113 -90 -245 -135.5t-270 -45.5h-2q-170 0 -322.5 65.5 t-270 184.5t-181.5 275q-65 160 -65 326v5zM575 827q0 -119 57.5 -220t155 -160.5t211.5 -59.5q121 0 218.5 61.5t152.5 164t55 216.5q0 135 -73 248q-59 88 -152.5 140.5t-200.5 52.5q-117 0 -214 -59.5t-153.5 -161t-56.5 -222.5z" />
<glyph unicode="&#xe2;" horiz-adv-x="2187" d="M160 827q0 225 109.5 423t302 317t427.5 119h2q139 0 270.5 -46.5t241.5 -132.5q16 70 72.5 116t130.5 46q86 0 147.5 -61.5t61.5 -147.5v-1259q0 -86 -61.5 -146.5t-147.5 -60.5q-72 0 -128 45t-72 113q-113 -90 -245 -135.5t-270 -45.5h-2q-170 0 -322.5 65.5 t-270 184.5t-181.5 275q-65 160 -65 326v5zM575 827q0 -119 57.5 -220t155 -160.5t211.5 -59.5q121 0 218.5 61.5t152.5 164t55 216.5q0 135 -73 248q-59 88 -152.5 140.5t-200.5 52.5q-117 0 -214 -59.5t-153.5 -161t-56.5 -222.5z" />
<glyph unicode="&#xe1;" horiz-adv-x="2187" d="M160 827q0 225 109.5 423t302 317t427.5 119h2q139 0 270.5 -46.5t241.5 -132.5q16 70 72.5 116t130.5 46q86 0 147.5 -61.5t61.5 -147.5v-1259q0 -86 -61.5 -146.5t-147.5 -60.5q-72 0 -128 45t-72 113q-113 -90 -245 -135.5t-270 -45.5h-2q-170 0 -322.5 65.5 t-270 184.5t-181.5 275q-65 160 -65 326v5zM575 827q0 -119 57.5 -220t155 -160.5t211.5 -59.5q121 0 218.5 61.5t152.5 164t55 216.5q0 135 -73 248q-59 88 -152.5 140.5t-200.5 52.5q-117 0 -214 -59.5t-153.5 -161t-56.5 -222.5z" />
<glyph unicode="&#xe0;" horiz-adv-x="2187" d="M160 827q0 225 109.5 423t302 317t427.5 119h2q139 0 270.5 -46.5t241.5 -132.5q16 70 72.5 116t130.5 46q86 0 147.5 -61.5t61.5 -147.5v-1259q0 -86 -61.5 -146.5t-147.5 -60.5q-72 0 -128 45t-72 113q-113 -90 -245 -135.5t-270 -45.5h-2q-170 0 -322.5 65.5 t-270 184.5t-181.5 275q-65 160 -65 326v5zM575 827q0 -119 57.5 -220t155 -160.5t211.5 -59.5q121 0 218.5 61.5t152.5 164t55 216.5q0 135 -73 248q-59 88 -152.5 140.5t-200.5 52.5q-117 0 -214 -59.5t-153.5 -161t-56.5 -222.5z" />
<glyph unicode="b" horiz-adv-x="2060" d="M199 184v2v1882q0 86 60 147.5t147 61.5q86 0 146 -61.5t60 -147.5v-516q193 117 426 117q240 0 432.5 -119.5t301 -318.5t108.5 -422q0 -256 -143 -473q-119 -180 -305.5 -279.5t-393.5 -99.5q-244 0 -448 133q-27 -51 -76 -82t-108 -31q-86 0 -146.5 60.5t-60.5 146.5z M612 811q0 -119 57.5 -219t156 -159.5t212.5 -59.5q121 0 218.5 61.5t152.5 163.5t55 217q0 135 -73 248q-63 96 -154.5 144t-192.5 48q-111 0 -210 -54t-160.5 -153.5t-61.5 -230.5v-6z" />
<glyph unicode="c" horiz-adv-x="1875" d="M160 846q0 252 126 450.5t331.5 308t435.5 109.5q162 0 314.5 -57.5t281.5 -171.5q31 -29 49 -69t18 -85q0 -86 -60.5 -146.5t-146.5 -60.5q-82 0 -139 54q-70 61 -150.5 91.5t-166.5 30.5q-123 0 -233.5 -57t-178.5 -161.5t-68 -237.5q0 -66 21 -133q20 -59 59 -119 q78 -113 209 -166q82 -37 187 -37q92 0 172 31q86 35 141 84q59 53 139 53q86 0 146.5 -61.5t60.5 -147.5q0 -45 -19.5 -86t-52.5 -69q-111 -100 -268 -162q-156 -57 -319 -58h-2q-129 0 -263 39q-127 39 -231 109q-106 70 -189 168t-135 215q-69 160 -69 337v5z" />
<glyph unicode="d" horiz-adv-x="2021" d="M160 829q0 258 143 476q115 174 299 276t397 102q246 0 449 -131v531q0 86 60.5 146.5t146.5 60.5t146.5 -60.5t60.5 -146.5v-1884q0 -86 -60.5 -147.5t-146.5 -61.5q-61 0 -113.5 33.5t-75.5 89.5q-217 -143 -465 -144q-242 0 -434 121t-299.5 318.5t-107.5 420.5z M575 827q0 -121 57.5 -222t155 -160.5t213.5 -59.5q121 0 218.5 61.5t151.5 164t54 216.5q0 135 -73 248q-63 96 -154.5 144.5t-191.5 48.5q-111 0 -210.5 -54.5t-160 -155t-60.5 -231.5z" />
<glyph unicode="e" horiz-adv-x="1994" d="M160 825q0 236 112.5 435.5t304 316.5t414.5 117h2q242 0 433.5 -115t300 -313.5t108.5 -440.5q0 -86 -60.5 -146.5t-146.5 -60.5h-719q-86 0 -146.5 60.5t-60.5 146.5t60.5 147.5t146.5 61.5h469q-49 115 -150.5 179.5t-236.5 64.5q-111 0 -207 -60.5t-153.5 -165 t-57.5 -227.5q0 -111 39 -204q41 -90 107 -146q51 -41 106 -63q94 -37 209 -37q86 0 166 33q78 29 148 88q59 53 139 53q86 0 146.5 -60.5t60.5 -146.5q0 -45 -18.5 -85t-51.5 -69v-2q-4 0 -4 -4h-2q-123 -106 -268 -162q-158 -61 -316 -61q-164 0 -311 47q-141 49 -258 139 q-72 59 -131 136q-74 94 -119 217q-55 158 -55 327z" />
<glyph unicode="&#xea;" horiz-adv-x="1994" d="M160 825q0 236 112.5 435.5t304 316.5t414.5 117h2q242 0 433.5 -115t300 -313.5t108.5 -440.5q0 -86 -60.5 -146.5t-146.5 -60.5h-719q-86 0 -146.5 60.5t-60.5 146.5t60.5 147.5t146.5 61.5h469q-49 115 -150.5 179.5t-236.5 64.5q-111 0 -207 -60.5t-153.5 -165 t-57.5 -227.5q0 -111 39 -204q41 -90 107 -146q51 -41 106 -63q94 -37 209 -37q86 0 166 33q78 29 148 88q59 53 139 53q86 0 146.5 -60.5t60.5 -146.5q0 -45 -18.5 -85t-51.5 -69v-2q-4 0 -4 -4h-2q-123 -106 -268 -162q-158 -61 -316 -61q-164 0 -311 47q-141 49 -258 139 q-72 59 -131 136q-74 94 -119 217q-55 158 -55 327z" />
<glyph unicode="&#xe9;" horiz-adv-x="1994" d="M160 825q0 236 112.5 435.5t304 316.5t414.5 117h2q242 0 433.5 -115t300 -313.5t108.5 -440.5q0 -86 -60.5 -146.5t-146.5 -60.5h-719q-86 0 -146.5 60.5t-60.5 146.5t60.5 147.5t146.5 61.5h469q-49 115 -150.5 179.5t-236.5 64.5q-111 0 -207 -60.5t-153.5 -165 t-57.5 -227.5q0 -111 39 -204q41 -90 107 -146q51 -41 106 -63q94 -37 209 -37q86 0 166 33q78 29 148 88q59 53 139 53q86 0 146.5 -60.5t60.5 -146.5q0 -45 -18.5 -85t-51.5 -69v-2q-4 0 -4 -4h-2q-123 -106 -268 -162q-158 -61 -316 -61q-164 0 -311 47q-141 49 -258 139 q-72 59 -131 136q-74 94 -119 217q-55 158 -55 327z" />
<glyph unicode="&#xe8;" horiz-adv-x="1994" d="M160 825q0 236 112.5 435.5t304 316.5t414.5 117h2q242 0 433.5 -115t300 -313.5t108.5 -440.5q0 -86 -60.5 -146.5t-146.5 -60.5h-719q-86 0 -146.5 60.5t-60.5 146.5t60.5 147.5t146.5 61.5h469q-49 115 -150.5 179.5t-236.5 64.5q-111 0 -207 -60.5t-153.5 -165 t-57.5 -227.5q0 -111 39 -204q41 -90 107 -146q51 -41 106 -63q94 -37 209 -37q86 0 166 33q78 29 148 88q59 53 139 53q86 0 146.5 -60.5t60.5 -146.5q0 -45 -18.5 -85t-51.5 -69v-2q-4 0 -4 -4h-2q-123 -106 -268 -162q-158 -61 -316 -61q-164 0 -311 47q-141 49 -258 139 q-72 59 -131 136q-74 94 -119 217q-55 158 -55 327z" />
<glyph unicode="f" horiz-adv-x="1572" d="M160 1401q0 86 60.5 146.5t146.5 60.5h127v108q0 291 165 451q161 155 425 155h3q57 0 140 -10h2h6q76 -10 127 -68.5t51 -136.5q0 -86 -60.5 -147.5t-146.5 -61.5l-26 3h-2q-47 6 -82 6q-102 0 -148 -39q-23 -18 -32 -58.5t-9 -85.5v-116h287q86 0 147.5 -60.5 t61.5 -146.5q0 -23 -8 -60l-2 -2q0 -6 -4 -10l-3 -8l-6 -14l-2 -4q-4 -4 -4 -5q-23 -39 -57.5 -65.5t-79.5 -34.5q-14 -4 -43 -4h-287v-987q0 -86 -60.5 -146.5t-146.5 -60.5t-146 60.5t-60 146.5v987h-127q-86 0 -146.5 60.5t-60.5 146.5z" />
<glyph unicode="g" horiz-adv-x="1990" d="M268.5 1228q108.5 179 300 286.5t426.5 107.5q240 0 443 -117q27 51 77 83t109 32q86 0 146.5 -61.5t60.5 -147.5v-49v-135v-344q2 -12 2 -37t-2 -37v-526q0 -154 -3 -200t-20 -106q-53 -213 -199.5 -366.5t-365.5 -206.5h-2q-123 -31 -272 -31q-186 0 -370.5 52.5 t-324.5 156.5q-39 29 -61.5 73t-22.5 93q0 86 61.5 146.5t147.5 60.5q43 0 80 -16q25 -10 45 -27q49 -33 90 -53.5t115 -38.5q117 -31 242 -31q104 0 174 18q115 29 184.5 113t85.5 197l2 18v39q-190 -104 -420 -104q-246 0 -455.5 123.5t-312.5 343.5q-69 150 -69 305 q0 207 108.5 386zM573 846q0 -104 68 -195q57 -76 150.5 -121t203.5 -45q111 0 205 45t152.5 122t64.5 169v49q-8 102 -77.5 184.5t-172.5 121.5q-82 32 -167 32h-5q-113 0 -210 -50t-154.5 -134t-57.5 -178z" />
<glyph unicode="h" horiz-adv-x="1835" d="M160 207v2v1882q0 86 60.5 147.5t146.5 61.5t146 -61.5t60 -147.5v-479q166 82 345 82q197 0 370.5 -96.5t280 -266.5t106.5 -379v-2v-743q0 -86 -61.5 -146.5t-145.5 -60.5q-86 0 -147 60.5t-61 146.5v743q0 100 -49.5 174t-128 113t-167.5 39q-100 0 -186 -51 t-129 -150q-27 -63 -27 -125v-741v-2q0 -86 -60 -146.5t-146 -60.5t-146.5 60.5t-60.5 146.5z" />
<glyph unicode="i" horiz-adv-x="831" d="M217 207v1255q0 86 61.5 146.5t147.5 60.5t146.5 -60.5t60.5 -146.5v-1255q0 -86 -60.5 -146.5t-146.5 -60.5t-147.5 60.5t-61.5 146.5zM217 2091q0 86 61.5 147.5t147.5 61.5t146.5 -61.5t60.5 -147.5t-60.5 -146.5t-146.5 -60.5t-147.5 60.5t-61.5 146.5z" />
<glyph unicode="&#xee;" horiz-adv-x="831" d="M217 207v1255q0 86 61.5 146.5t147.5 60.5t146.5 -60.5t60.5 -146.5v-1255q0 -86 -60.5 -146.5t-146.5 -60.5t-147.5 60.5t-61.5 146.5zM217 2091q0 86 61.5 147.5t147.5 61.5t146.5 -61.5t60.5 -147.5t-60.5 -146.5t-146.5 -60.5t-147.5 60.5t-61.5 146.5z" />
<glyph unicode="&#xed;" horiz-adv-x="831" d="M217 207v1255q0 86 61.5 146.5t147.5 60.5t146.5 -60.5t60.5 -146.5v-1255q0 -86 -60.5 -146.5t-146.5 -60.5t-147.5 60.5t-61.5 146.5zM217 2091q0 86 61.5 147.5t147.5 61.5t146.5 -61.5t60.5 -147.5t-60.5 -146.5t-146.5 -60.5t-147.5 60.5t-61.5 146.5z" />
<glyph unicode="&#xec;" horiz-adv-x="831" d="M217 207v1255q0 86 61.5 146.5t147.5 60.5t146.5 -60.5t60.5 -146.5v-1255q0 -86 -60.5 -146.5t-146.5 -60.5t-147.5 60.5t-61.5 146.5zM217 2091q0 86 61.5 147.5t147.5 61.5t146.5 -61.5t60.5 -147.5t-60.5 -146.5t-146.5 -60.5t-147.5 60.5t-61.5 146.5z" />
<glyph unicode="j" horiz-adv-x="1239" d="M160 -326q0 86 60.5 146.5t146.5 60.5q18 0 28 -2q47 -6 82 -6q92 0 131 34t51 97q4 16 5.5 99t1.5 325v1030q0 86 60 147.5t146 61.5t147.5 -61.5t61.5 -147.5q0 -12 -2 -18v-1442q-8 -143 -90 -279q-82 -133 -217 -196.5t-303 -63.5q-72 0 -131 9q-76 10 -127 68 t-51 138zM666 2089q0 86 60 146.5t146 60.5t147.5 -60.5t61.5 -146.5t-61.5 -147.5t-147.5 -61.5t-146 61.5t-60 147.5z" />
<glyph unicode="k" horiz-adv-x="1804" d="M160 207v2v1884q0 86 60.5 146.5t146.5 60.5t146 -60.5t60 -146.5v-1010l37 31l2 2h2v2l592 520q59 53 137 54q86 0 146.5 -61.5t60.5 -147.5q0 -92 -69 -156l-434 -383l544 -596h-2q56 -59 56 -141q0 -86 -60.5 -146.5t-146.5 -60.5q-45 0 -85 18.5t-69 49.5l-551 602 l-160 -142v-319v-2q0 -86 -60 -146.5t-146 -60.5t-146.5 60.5t-60.5 146.5z" />
<glyph unicode="l" horiz-adv-x="1253" d="M252 586v1509q0 86 61.5 146.5t147.5 60.5t146.5 -60.5t60.5 -146.5v-1530l-2 -6q0 -29 9 -66.5t32 -58.5q41 -39 143 -39q39 0 88 6l29 2q86 0 146.5 -61t60.5 -147q0 -78 -51.5 -136.5t-129.5 -68.5h-6q-78 -10 -137 -10q-266 0 -432 155q-108 105 -140 233 q-26 108 -27 188q0 16 1 30z" />
<glyph unicode="m" horiz-adv-x="2934" d="M160 207v2v741v539q0 86 60.5 147.5t146.5 61.5q55 0 102 -28t76 -73q180 96 375 97q158 0 300 -61.5t248 -172.5q106 111 250 172.5t301 61.5q207 0 381 -100.5t275.5 -271.5t101.5 -372v-743q-2 -86 -62.5 -146.5t-146.5 -60.5t-146.5 60.5t-60.5 146.5v743 q0 43 -14 97q-37 113 -125 172t-197 59q-88 0 -168.5 -40t-131 -114.5t-50.5 -173.5v-743q0 -86 -61.5 -146.5t-145.5 -60.5q-86 0 -147 60.5t-61 146.5v743q0 53 -15 97q-37 113 -125 171t-196 58q-90 0 -170 -39t-130.5 -112.5t-50.5 -174.5v-741v-2q0 -86 -60 -146.5 t-146 -60.5t-146.5 60.5t-60.5 146.5z" />
<glyph unicode="n" horiz-adv-x="1832" d="M160 207v2v741v539q0 86 60.5 147.5t146.5 61.5q55 0 102 -28t76 -73q174 96 370 97q197 0 372 -96.5t281.5 -266.5t106.5 -381v-16v-711v-16v-14v-3q-8 -80 -67.5 -135t-139.5 -55q-82 0 -141 55.5t-65 134.5h-2v760q0 53 -15 97q-37 113 -125 171t-196 58 q-90 0 -170 -39t-130.5 -112.5t-50.5 -174.5v-741v-2q0 -86 -60 -146.5t-146 -60.5t-146.5 60.5t-60.5 146.5z" />
<glyph unicode="o" horiz-adv-x="2082" d="M160 811q0 143 39 262q43 129 112 230q72 102 171.5 183t215.5 130q166 67 337 67h5q133 0 263 -38q121 -39 231 -109q219 -147 319 -383q70 -158 70 -338q0 -236 -118.5 -435.5t-321.5 -316t-443 -116.5t-441.5 116.5t-320 314t-118.5 433.5zM573 815 q0 -123 62.5 -227.5t170 -165t234.5 -60.5t234.5 60.5t171 165t63.5 227.5q0 66 -22 133q-18 61 -57 117q-74 113 -205 166q-90 37 -185 37q-68 0 -139 -21q-70 -23 -123 -57q-115 -80 -168 -201q-37 -88 -37 -174z" />
<glyph unicode="&#xf6;" horiz-adv-x="2082" d="M160 811q0 143 39 262q43 129 112 230q72 102 171.5 183t215.5 130q166 67 337 67h5q133 0 263 -38q121 -39 231 -109q219 -147 319 -383q70 -158 70 -338q0 -236 -118.5 -435.5t-321.5 -316t-443 -116.5t-441.5 116.5t-320 314t-118.5 433.5zM573 815 q0 -123 62.5 -227.5t170 -165t234.5 -60.5t234.5 60.5t171 165t63.5 227.5q0 66 -22 133q-18 61 -57 117q-74 113 -205 166q-90 37 -185 37q-68 0 -139 -21q-70 -23 -123 -57q-115 -80 -168 -201q-37 -88 -37 -174z" />
<glyph unicode="&#xf5;" horiz-adv-x="2082" d="M160 811q0 143 39 262q43 129 112 230q72 102 171.5 183t215.5 130q166 67 337 67h5q133 0 263 -38q121 -39 231 -109q219 -147 319 -383q70 -158 70 -338q0 -236 -118.5 -435.5t-321.5 -316t-443 -116.5t-441.5 116.5t-320 314t-118.5 433.5zM573 815 q0 -123 62.5 -227.5t170 -165t234.5 -60.5t234.5 60.5t171 165t63.5 227.5q0 66 -22 133q-18 61 -57 117q-74 113 -205 166q-90 37 -185 37q-68 0 -139 -21q-70 -23 -123 -57q-115 -80 -168 -201q-37 -88 -37 -174z" />
<glyph unicode="&#xf4;" horiz-adv-x="2082" d="M160 811q0 143 39 262q43 129 112 230q72 102 171.5 183t215.5 130q166 67 337 67h5q133 0 263 -38q121 -39 231 -109q219 -147 319 -383q70 -158 70 -338q0 -236 -118.5 -435.5t-321.5 -316t-443 -116.5t-441.5 116.5t-320 314t-118.5 433.5zM573 815 q0 -123 62.5 -227.5t170 -165t234.5 -60.5t234.5 60.5t171 165t63.5 227.5q0 66 -22 133q-18 61 -57 117q-74 113 -205 166q-90 37 -185 37q-68 0 -139 -21q-70 -23 -123 -57q-115 -80 -168 -201q-37 -88 -37 -174z" />
<glyph unicode="&#xf3;" horiz-adv-x="2082" d="M160 811q0 143 39 262q43 129 112 230q72 102 171.5 183t215.5 130q166 67 337 67h5q133 0 263 -38q121 -39 231 -109q219 -147 319 -383q70 -158 70 -338q0 -236 -118.5 -435.5t-321.5 -316t-443 -116.5t-441.5 116.5t-320 314t-118.5 433.5zM573 815 q0 -123 62.5 -227.5t170 -165t234.5 -60.5t234.5 60.5t171 165t63.5 227.5q0 66 -22 133q-18 61 -57 117q-74 113 -205 166q-90 37 -185 37q-68 0 -139 -21q-70 -23 -123 -57q-115 -80 -168 -201q-37 -88 -37 -174z" />
<glyph unicode="&#xf2;" horiz-adv-x="2082" d="M160 811q0 143 39 262q43 129 112 230q72 102 171.5 183t215.5 130q166 67 337 67h5q133 0 263 -38q121 -39 231 -109q219 -147 319 -383q70 -158 70 -338q0 -236 -118.5 -435.5t-321.5 -316t-443 -116.5t-441.5 116.5t-320 314t-118.5 433.5zM573 815 q0 -123 62.5 -227.5t170 -165t234.5 -60.5t234.5 60.5t171 165t63.5 227.5q0 66 -22 133q-18 61 -57 117q-74 113 -205 166q-90 37 -185 37q-68 0 -139 -21q-70 -23 -123 -57q-115 -80 -168 -201q-37 -88 -37 -174z" />
<glyph unicode="p" horiz-adv-x="1998" d="M160 -479v1884q0 86 60.5 147.5t146.5 61.5q61 0 111 -33t75 -86q207 129 448 129q228 0 421.5 -112.5t306 -306t112.5 -421.5q0 -229 -112.5 -421.5t-306 -305t-421.5 -112.5q-229 0 -428 116v-540q0 -86 -60 -146.5t-146 -60.5t-146.5 60.5t-60.5 146.5zM573 784 q0 -117 57.5 -215t156 -155.5t214.5 -57.5q117 0 214.5 57.5t154.5 156t57 214.5q0 117 -57 214.5t-154.5 154.5t-214.5 57t-215 -57t-155.5 -154.5t-57.5 -214.5z" />
<glyph unicode="q" horiz-adv-x="2000" d="M160 831q0 225 109.5 423t302 317t427.5 119h2q123 0 250 -39q104 -31 207 -99q29 43 75 70t101 27q86 0 146.5 -61.5t60.5 -147.5v-1862q0 -49 -22 -94q-27 -51 -76 -83t-109 -32q-86 0 -147.5 61.5t-61.5 147.5v516q-193 -117 -424 -117h-2q-170 0 -322.5 66 t-270 184.5t-181.5 274.5q-65 156 -65 324v5zM575 838q0 -115 52.5 -217.5t149.5 -166t224 -63.5q115 0 212.5 59.5t154.5 161t57 222.5q0 70 -18 133t-55 114q-68 106 -187 160q-82 33 -164 33q-131 0 -237 -74q-94 -66 -141.5 -161t-47.5 -201z" />
<glyph unicode="r" horiz-adv-x="1499" d="M160 203v2v719v540q0 86 60.5 146.5t146.5 60.5q49 0 92 -21.5t71 -58.5q145 78 332 78q174 0 383 -72h2q2 -2 6 -2q62 -22 101 -76.5t39 -119.5q0 -86 -61.5 -146.5t-147.5 -60.5q-37 0 -70 12q-145 51 -254 51q-51 0 -94 -12q-74 -23 -117 -85t-59.5 -127.5 t-16.5 -106.5v-719v-2q0 -86 -60 -146.5t-146 -60.5t-146.5 60.5t-60.5 146.5z" />
<glyph unicode="s" horiz-adv-x="1636" d="M160 334q0 86 60.5 146.5t146.5 60.5q59 0 112 -33h2q96 -63 185.5 -96t195.5 -33q84 0 142.5 25.5t58.5 89.5q0 8 -1 12t-1 6q-16 43 -109.5 74.5t-191.5 52.5q-250 57 -400.5 182t-150.5 338v2v2q0 168 78 287t211 180.5t297 61.5q150 0 305 -54q88 -31 194 -86 q51 -27 82 -76t31 -108q0 -86 -60.5 -147.5t-146.5 -61.5h-2l-16 2q-43 4 -74 21q-16 6 -29.5 13t-23.5 11q-70 33 -125.5 50.5t-130.5 17.5q-78 0 -117 -15.5t-49 -39t-10 -60.5q0 -6 1 -8t1 -4q8 -20 46 -41t70 -31q29 -12 95 -24q170 -43 300 -94.5t236.5 -165 t106.5 -297.5q0 -147 -74 -267.5t-214 -191t-329 -70.5q-162 0 -303 45t-283 135q-53 27 -84.5 77t-31.5 112z" />
<glyph unicode="t" horiz-adv-x="1572" d="M160 1516q0 86 60.5 146t146.5 60h127v394q0 86 60 146t146 60t146.5 -60t60.5 -146v-394h287q86 0 147.5 -60t61.5 -146t-61.5 -147.5t-147.5 -61.5h-287v-719q0 -92 45 -133t133 -41q25 0 91 8q10 2 30 2q86 0 146.5 -60.5t60.5 -146.5q0 -78 -50 -136t-126 -69v-2h-8 h-2q-78 -10 -135 -10q-188 0 -323.5 77t-205 213t-69.5 310v707h-127q-86 0 -146.5 61.5t-60.5 147.5z" />
<glyph unicode="u" horiz-adv-x="1832" d="M160 727v14v713v14v17v2q6 80 65.5 135t141.5 55t141 -55t65 -135v-760q0 -47 17 -96q35 -113 123 -171.5t196 -58.5q90 0 170 39t130.5 113t50.5 174v741q0 86 61 147.5t147 61.5t146.5 -61.5t60.5 -147.5v-741v-541q0 -86 -60.5 -146t-146.5 -60q-55 0 -102 27.5 t-76 72.5q-178 -96 -370 -96q-199 0 -374 96t-280.5 266t-105.5 381z" />
<glyph unicode="&#xfb;" horiz-adv-x="1832" d="M160 727v14v713v14v17v2q6 80 65.5 135t141.5 55t141 -55t65 -135v-760q0 -47 17 -96q35 -113 123 -171.5t196 -58.5q90 0 170 39t130.5 113t50.5 174v741q0 86 61 147.5t147 61.5t146.5 -61.5t60.5 -147.5v-741v-541q0 -86 -60.5 -146t-146.5 -60q-55 0 -102 27.5 t-76 72.5q-178 -96 -370 -96q-199 0 -374 96t-280.5 266t-105.5 381z" />
<glyph unicode="&#xfa;" horiz-adv-x="1832" d="M160 727v14v713v14v17v2q6 80 65.5 135t141.5 55t141 -55t65 -135v-760q0 -47 17 -96q35 -113 123 -171.5t196 -58.5q90 0 170 39t130.5 113t50.5 174v741q0 86 61 147.5t147 61.5t146.5 -61.5t60.5 -147.5v-741v-541q0 -86 -60.5 -146t-146.5 -60q-55 0 -102 27.5 t-76 72.5q-178 -96 -370 -96q-199 0 -374 96t-280.5 266t-105.5 381z" />
<glyph unicode="&#xf9;" horiz-adv-x="1832" d="M160 727v14v713v14v17v2q6 80 65.5 135t141.5 55t141 -55t65 -135v-760q0 -47 17 -96q35 -113 123 -171.5t196 -58.5q90 0 170 39t130.5 113t50.5 174v741q0 86 61 147.5t147 61.5t146.5 -61.5t60.5 -147.5v-741v-541q0 -86 -60.5 -146t-146.5 -60q-55 0 -102 27.5 t-76 72.5q-178 -96 -370 -96q-199 0 -374 96t-280.5 266t-105.5 381z" />
<glyph unicode="v" horiz-adv-x="1828" d="M160 1454q0 86 60.5 146.5t146.5 60.5q61 0 111 -32t75 -85l414 -858l411 858q27 53 77 85t112 32q86 0 146.5 -60.5t60.5 -146.5q0 -45 -21 -90l-596 -1237l-4 -8l-4 -8q-27 -49 -77 -80t-109 -31q-47 0 -95 25l-2 2q-6 2 -9 4t-5 4q-4 4 -6 4l-8 6l-2 2l-5 2l-12 12 l-12 15l-1 1l-1 1l-10 12q0 2 -2 2l-9 17v2l-6 8l-598 1245q-20 39 -20 90z" />
<glyph unicode="w" horiz-adv-x="3045" d="M160 1454q0 86 60.5 146.5t146.5 60.5q61 0 111 -32t75 -85l414 -858l411 858l2 2v2q27 51 76 82t111 31q61 0 110 -32t76 -85v-2l412 -856l413 858q25 53 75 85t112 32q86 0 147.5 -60.5t61.5 -146.5q0 -49 -23 -90l-598 -1245v-2l-4 -4q0 -4 -2 -7l-1 -1l-1 -1l-4 -8 l-4 -4v-2l-10 -12l1 1l1 1l-2 -4l-1 -1l-2 -1q-29 -35 -77 -58l-19 -6l-18 -6q-29 -4 -43 -4h-2q-43 0 -90 20l-4 3h2l-5 2l-4 2l-1 1l-1 1h-2l-8 6l1 -1l1 -1l-4 2l-2 2q-2 0 -6 4l2 -2l-8 8v-2l-4 4l-11 8l-6 6l-6 7l2 -2q-4 4 -4 6l-2 2q-16 20 -25 39l-2 2l-8 18v2 l-403 838l-414 -856v-2l-2 -4l-4 -7q-6 -12 -8 -14l-2 -2l-7 -8l-1 -1l-1 -1l-1 -1l-1 -1l-2 -4q-29 -33 -75 -58q-8 -2 -17.5 -6t-23.5 -6q-29 -4 -41 -4q-51 0 -97 23l7 -3q-2 2 -7 3l-4 4q-53 29 -88 90v2l-598 1245q-20 39 -20 90zM1128 78v2q2 0 2 2zM2054 33zM2060 29 h2q0 -2 2 -2zM2077 20q2 -2 6 -2zM2333 84l4 6zM2337 90zM2339 92l2 4zM2341 96l2 2z" />
<glyph unicode="x" horiz-adv-x="1769" d="M160 188v15v4v22v2l4 17q0 6 2 8q0 8 2 12q0 2 4 11l2 8l6 10q0 4 4 8q4 10 9 14l2 5l12 16l407 489l-407 492q-47 53 -47 133q0 86 60.5 146.5t146.5 60.5q47 0 89 -20.5t70 -55.5l359 -430l356 430h2q29 35 70 55.5t90 20.5q86 0 146.5 -60.5t60.5 -146.5 q0 -76 -47 -133l-408 -492l408 -489l12 -16l2 -5q2 -2 4 -5t4 -9l4 -8q2 -2 2 -5t2 -5l4 -8q0 -2 5 -11l2 -10l2 -10q2 -4 2 -15q0 -4 2 -4v-20v-2v-6v-13q-2 -4 -2 -12l-2 -8l-2 -12q-2 -2 -2 -9l-5 -10l-4 -8q0 -2 -4 -10l-4 -8l-4 -9l-6 -10l-6 -6l-6 -10l-7 -6l-6 -9 l-12 -10l-4 -4l-4 -4l-10 -6q-4 -4 -7 -4l-10 -6l-8 -4l-10 -7q-4 0 -6 -2l-13 -4l-6 -2q-4 -2 -12 -2q-2 -2 -6 -2q-6 -2 -15 -2q-4 0 -6 -2h-18h-21l-1 1l-1 1q-12 0 -18 2h-2l-17 4l-4 2l-16 6h-4l-14 9h-2q-16 8 -31 22h-2l-15 12q0 2 -2 2l-10 13l-2 2l-356 430 l-359 -430v-2l-12 -13l-1 -1l-1 -1l-12 -12h-2q-20 -16 -31 -22h-2l-16 -9h-3l-16 -6l-4 -2l-16 -4h-4q-6 -2 -17 -2l-2 -2h-20h-21q-2 2 -6 2q-8 0 -12 2l-9 2q-6 0 -10 2l-8 2l-10 4q-2 2 -8 2l-11 7l-6 4l-10 6q-2 0 -6 4q-8 4 -12 8l-5 2q-4 4 -4 6q-8 4 -10 8l-8 9 l-6 6l-6 10l-6 6l-5 10l-6 9l-4 8l-4 10l-2 8l-4 10l-2 9l-4 12v10q-2 2 -2 10z" />
<glyph unicode="y" horiz-adv-x="1912" d="M90 1444q0 86 60.5 147.5t146.5 61.5q53 0 99 -25.5t75 -68.5l508 -781l381 760q25 51 75 83t109 32q86 0 147.5 -61.5t61.5 -147.5q0 -51 -22 -92l-543 -1084v-2l-406 -809q-27 -51 -77 -82.5t-109 -31.5q-86 0 -146.5 60t-60.5 146q0 49 23 95h-2l354 706l-641 981 q-33 53 -33 113z" />
<glyph unicode="&#xfd;" horiz-adv-x="1912" d="M90 1444q0 86 60.5 147.5t146.5 61.5q53 0 99 -25.5t75 -68.5l508 -781l381 760q25 51 75 83t109 32q86 0 147.5 -61.5t61.5 -147.5q0 -51 -22 -92l-543 -1084v-2l-406 -809q-27 -51 -77 -82.5t-109 -31.5q-86 0 -146.5 60t-60.5 146q0 49 23 95h-2l354 706l-641 981 q-33 53 -33 113z" />
<glyph unicode="z" horiz-adv-x="1777" d="M160 205q0 80 49 137l758 903h-600q-86 0 -146.5 61.5t-60.5 147.5t60.5 146.5t146.5 60.5h1044q90 0 148.5 -62.5t58.5 -146.5q0 -72 -45 -129l-2 -4l-760 -903h600q86 0 147.5 -61.5t61.5 -147.5t-61.5 -146.5t-147.5 -60.5h-1042q-61 0 -113 33q-49 29 -72.5 75 t-23.5 97z" />
<glyph unicode="&#xa3;" horiz-adv-x="2197" d="M160 1059q0 86 60.5 146.5t146.5 60.5h129q6 309 80.5 516t243.5 318.5t454 111.5q211 0 384 -94.5t236 -272.5v-4q2 -2 2 -6l5 -14v-6l4 -15v-8v-12v-2v-9v-8l-2 -14v-4q-12 -74 -70.5 -124t-134.5 -50q-68 0 -121 39t-76 102q-14 39 -86 62.5t-162 23.5 q-78 0 -144.5 -19.5t-100.5 -58.5q-90 -104 -97 -452h607q86 0 147 -60.5t61 -146.5q0 -88 -61 -148.5t-147 -60.5q-16 0 -25 2h-580v-436h920q86 0 146.5 -61.5t60.5 -147.5q0 -33 -8 -57v-5l-13 -26q-25 -53 -75 -86t-111 -33h-1436q-86 0 -146.5 60.5t-60.5 146.5 t60.5 147.5t146.5 61.5h101v436h-131q-86 0 -146.5 60.5t-60.5 146.5z" />
<glyph unicode="&#xc4;" horiz-adv-x="2568" d="M160 184v9v12v2v6v14v6q2 4 2 13q2 4 2 10l4 10l2 10l4 9l6 12q0 4 2 4l910 1792q23 57 75 94t117 37q66 0 117 -37t76 -94l909 -1792q2 0 2 -4l6 -12l2 -9q4 -8 4 -10q2 -4 2 -10q2 -4 2 -10q2 -4 2 -13q2 -2 2 -8v-12v-6v-2v-12v-9q-2 -4 -2 -10l-2 -10l-2 -8l-4 -13 l-2 -4q0 -6 -4 -14l-2 -6l-6 -10l-6 -11l-4 -8q-4 -2 -9 -10l-4 -4l-10 -10q0 -4 -4 -5l-8 -10q-2 0 -6 -4l-9 -6l-8 -6l-8 -4l-10 -6l-2 -2l-6 -3l-13 -6l-6 -2l-12 -4l-10 -2l-8 -2l-13 -2h-8q-4 -2 -14 -2h-4h-2h-15q-2 2 -8 2t-10 2h-10q-2 2 -7 2l-12 4l-6 2 q-8 4 -12 4l-6 4l-13 7l-8 4l-8 6l-10 6q-4 4 -7 4l-10 10l-4 4l-8 11l-6 4l-6 10l-6 8l-5 6l-6 13l-2 2l-213 420h-561q-86 0 -147.5 61t-61.5 147t61.5 146.5t147.5 60.5h350l-307 606l-733 -1441v-2l-6 -13q-4 -4 -4 -6l-6 -8l-7 -10l-6 -4l-8 -11l-4 -4l-10 -10l-6 -2 l-11 -8l-8 -6l-8 -4l-12 -7l-6 -4q-4 0 -13 -4l-6 -2l-12 -4l-8 -2h-11q-2 -2 -10 -2l-8 -2h-12h-2h-7q-8 0 -12 2h-8l-12 2l-11 2l-8 2l-12 4l-8 2l-13 6l-4 3l-1 1l-1 1l-10 6q-4 0 -8 4l-8 6l-8 6q-4 4 -7 4l-8 10q-4 0 -4 5q-6 4 -10 10l-4 4l-8 10l-5 10l-6 9l-6 10 l-2 6l-6 14l-2 4l-2 13l-2 8l-2 10zM682 2464q0 86 61.5 147.5t147.5 61.5t146.5 -61.5t60.5 -147.5t-60.5 -146.5t-146.5 -60.5t-147.5 60.5t-61.5 146.5zM1470 2464q0 86 60.5 147.5t146.5 61.5t146.5 -61.5t60.5 -147.5t-60.5 -146.5t-146.5 -60.5t-146.5 60.5 t-60.5 146.5z" />
<glyph unicode="&#xcb;" horiz-adv-x="1937" d="M160 207v1806v2v2q0 86 60.5 146.5t146.5 60.5l30 -2h1174q86 0 146.5 -61.5t60.5 -147.5t-60.5 -146.5t-146.5 -60.5h-998v-487h822q86 0 146.5 -61.5t60.5 -147.5t-60.5 -146.5t-146.5 -60.5h-822v-487h998q86 0 146.5 -61.5t60.5 -147.5t-60.5 -146.5t-146.5 -60.5 h-1204q-59 0 -107 29q-45 29 -72.5 76t-27.5 102zM367 2568q0 86 61 146.5t147 60.5t146.5 -60.5t60.5 -146.5t-60 -146.5t-147 -60.5q-86 0 -147 60.5t-61 146.5zM1155 2568q0 86 60.5 146.5t146.5 60.5t147.5 -60.5t61.5 -146.5t-61.5 -146.5t-147.5 -60.5t-146.5 60.5 t-60.5 146.5z" />
<glyph unicode="&#xd6;" d="M160 1104q0 317 155.5 586.5t422 428t583.5 162.5h14q320 0 590 -158.5t428 -429t158 -589.5t-158 -588.5t-428 -428.5t-590 -159q-319 0 -589.5 159t-428 428t-157.5 589zM573 1104q0 -233 129 -422.5t336 -278.5q141 -59 297 -59q207 0 381 102.5t277.5 276.5 t103.5 381t-102.5 382t-277.5 277.5t-382 102.5t-382 -102.5t-277.5 -277.5t-102.5 -382zM733 2540q0 86 61.5 147t147.5 61t146.5 -61t60.5 -147t-60.5 -146.5t-146.5 -60.5t-147.5 60.5t-61.5 146.5zM1522 2540q0 86 60 147t147 61q86 0 147 -61t61 -147t-61 -146.5 t-147 -60.5q-87 0 -147 60.5t-60 146.5z" />
<glyph unicode="&#xdc;" horiz-adv-x="2248" d="M160 883v10v1186q0 86 60.5 147.5t146.5 61.5t146 -61.5t60 -147.5v-4v-1182v-10q0 -123 78 -231.5t205 -172t266 -63.5t267.5 63.5t206 171t77.5 230.5v2l2 10v1182l-2 4q0 86 61.5 147.5t147.5 61.5t146.5 -61.5t60.5 -147.5v-1186v-10q0 -240 -135 -442.5 t-358.5 -321.5t-473.5 -119q-252 0 -473 119t-355 321.5t-134 442.5zM522 2494q0 86 61.5 146.5t147.5 60.5t146.5 -60.5t60.5 -146.5t-60.5 -147t-146.5 -61t-147.5 61t-61.5 147zM1311 2494q0 86 60.5 146.5t146.5 60.5t146 -60.5t60 -146.5t-60 -147t-146 -61t-146.5 61 t-60.5 147z" />
<glyph unicode="&#x2000;" horiz-adv-x="1387" />
<glyph unicode="&#x2001;" horiz-adv-x="2775" />
<glyph unicode="&#x2002;" horiz-adv-x="1387" />
<glyph unicode="&#x2003;" horiz-adv-x="2775" />
<glyph unicode="&#x2004;" horiz-adv-x="925" />
<glyph unicode="&#x2005;" horiz-adv-x="693" />
<glyph unicode="&#x2006;" horiz-adv-x="462" />
<glyph unicode="&#x2007;" horiz-adv-x="462" />
<glyph unicode="&#x2008;" horiz-adv-x="346" />
<glyph unicode="&#x2009;" horiz-adv-x="555" />
<glyph unicode="&#x200a;" horiz-adv-x="154" />
<glyph unicode="&#x202f;" horiz-adv-x="555" />
<glyph unicode="&#x205f;" horiz-adv-x="693" />
<glyph unicode="&#x20ac;" horiz-adv-x="2275" d="M160 930q0 86 60.5 147.5t146.5 61.5h63v32q0 57 2 84h-63q-86 0 -147.5 61.5t-61.5 147.5t61.5 146.5t147.5 60.5h145q113 301 350.5 473t562.5 174h3l8 -2h4q182 -8 349 -94t247 -237l2 -5l1 -1l1 -1q23 -45 22 -94q0 -86 -60 -147.5t-146 -61.5q-59 0 -109.5 31 t-75.5 82q-27 49 -101.5 78.5t-148.5 36.5h-2h-2q-293 -6 -442 -232h422q86 0 146.5 -60.5t60.5 -146.5t-60.5 -147.5t-146.5 -61.5h-551q-4 -53 -4 -84q0 -23 2 -32h551q86 0 147.5 -61.5t61.5 -147.5t-61.5 -146.5t-147.5 -60.5h-471q66 -145 175 -213t267 -70h4h17 q8 0 12 -2h4h22q31 0 74 6q43 10 92 31q35 16 62 39q49 41 80 90l2 2l2 4l8 11l2 4l12 12l1 1l1 1l13 12h2l14 13h2q2 2 14 8l1 1l1 1l17 8l4 2l14 4q2 2 6 2l13 4h6l16 4h4h19h18q4 0 6 -2q10 0 15 -2h4l16 -4l6 -2l13 -4l6 -2l10 -6l6 -2q4 -4 12 -8h2l13 -11l4 -4l10 -8 q4 -4 6 -4l6 -8l6 -8q4 -2 9 -11l4 -4q27 -37 33 -88q2 -2 2 -6v-10v-10l1 -1l1 -1l-2 -9v-12l-2 -8v-10q-2 -4 -3 -11l-4 -10l-2 -10l-4 -8l-6 -13l-2 -6q-4 -8 -8 -12q0 -4 -2 -6l-2 -2q-80 -119 -189 -203q-92 -68 -209 -106q-39 -14 -124 -33q-63 -10 -132 -10 q-39 0 -67 4q-328 2 -555 185t-320 511h-118q-86 0 -146.5 60.5t-60.5 146.5z" />
<glyph unicode="&#x25fc;" horiz-adv-x="1658" d="M0 0v1659h1659v-1659h-1659z" />
</font>
</defs>
</svg>
